{
  "accessors": [
    {
      "bufferView": 2,
      "componentType": 5126,
      "count": 9123,
      "max": [
        2.211549997329712,
        0.02500000037252903,
        2.464787006378174
      ],
      "min": [
        -2.2472569942474365,
        -0.02500000037252903,
        -1.8798240423202515
      ],
      "type": "VEC3"
    },
    {
      "bufferView": 2,
      "byteOffset": 109476,
      "componentType": 5126,
      "count": 9123,
      "max": [
        1.0,
        1.0,
        1.0
      ],
      "min": [
        -1.0,
        -1.0,
        -1.0
      ],
      "type": "VEC3"
    },
    {
      "bufferView": 1,
      "componentType": 5126,
      "count": 9123,
      "max": [
        1.0,
        1.0
      ],
      "min": [
        0.0,
        0.0
      ],
      "type": "VEC2"
    },
    {
      "bufferView": 0,
      "componentType": 5125,
      "count": 30288,
      "type": "SCALAR"
    },
    {
      "bufferView": 2,
      "byteOffset": 218952,
      "componentType": 5126,
      "count": 5234,
      "max": [
        1.7244399785995483,
        0.02500000037252903,
        1.4239369630813599
      ],
      "min": [
        -1.7244399785995483,
        -0.02500000037252903,
        -2.3878180980682373
      ],
      "type": "VEC3"
    },
    {
      "bufferView": 2,
      "byteOffset": 281760,
      "componentType": 5126,
      "count": 5234,
      "max": [
        1.0,
        1.0,
        0.9999727010726929
      ],
      "min": [
        -1.0,
        -1.0,
        -1.0
      ],
      "type": "VEC3"
    },
    {
      "bufferView": 1,
      "byteOffset": 72984,
      "componentType": 5126,
      "count": 5234,
      "max": [
        1.0,
        1.0
      ],
      "min": [
        0.0,
        0.0
      ],
      "type": "VEC2"
    },
    {
      "bufferView": 0,
      "byteOffset": 121152,
      "componentType": 5125,
      "count": 10692,
      "type": "SCALAR"
    }
  ],
  "asset": {
    "extras": {
      "author": "DiabolicMaggot (https://sketchfab.com/DiabolicMaggot)",
      "license": "CC-BY-4.0 (http://creativecommons.org/licenses/by/4.0/)",
      "source": "https://sketchfab.com/3d-models/monster-hunter-world-logo-b0b8d3b127404b0bbce254ddf865d6cf",
      "title": "Monster Hunter World Logo"
    },
    "generator": "Sketchfab-12.66.0",
    "version": "2.0"
  },
  "bufferViews": [
    {
      "buffer": 0,
      "byteLength": 163920,
      "name": "floatBufferViews",
      "target": 34963
    },
    {
      "buffer": 0,
      "byteLength": 114856,
      "byteOffset": 163920,
      "byteStride": 8,
      "name": "floatBufferViews",
      "target": 34962
    },
    {
      "buffer": 0,
      "byteLength": 344568,
      "byteOffset": 278776,
      "byteStride": 12,
      "name": "floatBufferViews",
      "target": 34962
    }
  ],
  "buffers": [
    {
      "byteLength": 623344,
      "uri": "scene.bin"
    }
  ],
  "materials": [
    {
      "doubleSided": true,
      "name": "BaseMat",
      "pbrMetallicRoughness": {
        "baseColorFactor": [
          0.7665614189803083,
          0.7665614189803083,
          0.7665614189803083,
          1.0
        ],
        "roughnessFactor": 0.2
      }
    }
  ],
  "meshes": [
    {
      "name": "Object_0",
      "primitives": [
        {
          "attributes": {
            "NORMAL": 1,
            "POSITION": 0,
            "TEXCOORD_0": 2
          },
          "indices": 3,
          "material": 0,
          "mode": 4
        }
      ]
    },
    {
      "name": "Object_1",
      "primitives": [
        {
          "attributes": {
            "NORMAL": 5,
            "POSITION": 4,
            "TEXCOORD_0": 6
          },
          "indices": 7,
          "material": 0,
          "mode": 4
        }
      ]
    }
  ],
  "nodes": [
    {
      "children": [
        1
      ],
      "matrix": [
        1.0,
        0.0,
        0.0,
        0.0,
        0.0,
        2.220446049250313e-16,
        -1.0,
        0.0,
        0.0,
        1.0,
        2.220446049250313e-16,
        0.0,
        0.0,
        0.0,
        0.0,
        1.0
      ],
      "name": "Sketchfab_model"
    },
    {
      "children": [
        2,
        3
      ],
      "name": "MHLogo.obj.cleaner.materialmerger.gles"
    },
    {
      "mesh": 0,
      "name": "Object_2"
    },
    {
      "mesh": 1,
      "name": "Object_3"
    }
  ],
  "scene": 0,
  "scenes": [
    {
      "name": "Sketchfab_Scene",
      "nodes": [
        0
      ]
    }
  ]
}
